<svg width="432" height="475" viewBox="0 0 432 475" fill="none" xmlns="http://www.w3.org/2000/svg">
<path fill-rule="evenodd" clip-rule="evenodd" d="M153.072 251.099C132.877 222.056 151.295 200.082 173.334 173.785C204.978 136.03 244.088 89.3652 187.113 0.0805664C199.41 42.4811 196.559 83.9908 152.893 132.092C149.748 135.789 146.225 139.631 142.524 143.666C120.003 168.221 90.8875 199.966 100.317 250.03C114.457 337.795 251.631 376.341 312.05 259.472C310.386 289.817 289.451 352.29 219.015 360.129C177.489 367.077 111.367 341.957 90.1577 292.074C83.3889 279.247 78.1517 258.061 78.3947 222.238C57.3669 262.322 54.6936 310.78 85.5277 353.715L3.1861 472.187C155.74 451.047 256.09 449.918 427.9 472.544L334.688 337.86C354.471 309.355 380.809 250.03 307.597 174.493C298.382 165.788 291.34 160.045 285.57 155.34C271.028 143.482 264.572 138.217 251.812 108.754C248.394 132.413 248.653 145.091 256.981 165.585C261.829 175.026 267.566 182.221 272.684 188.641C285.628 204.876 294.624 216.159 275.338 246.289L215.81 160.953L153.072 251.099ZM113.865 380.973L81.9622 426.224C187.225 417.196 245.654 417.821 349.124 426.045L308.132 367.077C250.208 413.753 164.659 416.247 113.865 380.973ZM246.644 272.299L215.81 228.117L182.304 276.04C200.305 285.304 227.039 284.413 246.644 272.299Z" stroke="#00FCCE" stroke-width="0.3" stroke-linecap="round"/>
<mask id="mask0_516_374" style="mask-type:alpha" maskUnits="userSpaceOnUse" x="0" y="-1" width="432" height="476">
<path fill-rule="evenodd" clip-rule="evenodd" d="M153.072 251.099C132.877 222.056 151.295 200.082 173.334 173.785C204.978 136.03 244.088 89.3652 187.113 0.0805664C199.41 42.4811 196.559 83.9908 152.893 132.092C149.748 135.789 146.225 139.631 142.524 143.666C120.003 168.221 90.8875 199.966 100.317 250.03C114.457 337.795 251.631 376.341 312.05 259.472C310.386 289.817 289.451 352.29 219.015 360.129C177.489 367.077 111.367 341.957 90.1577 292.074C83.3889 279.247 78.1517 258.061 78.3947 222.238C57.3669 262.322 54.6936 310.78 85.5277 353.715L3.1861 472.187C155.74 451.047 256.09 449.918 427.9 472.544L334.688 337.86C354.471 309.355 380.809 250.03 307.597 174.493C298.382 165.788 291.34 160.045 285.57 155.34C271.028 143.482 264.572 138.217 251.812 108.754C248.394 132.413 248.653 145.091 256.981 165.585C261.829 175.026 267.566 182.221 272.684 188.641C285.628 204.876 294.624 216.159 275.338 246.289L215.81 160.953L153.072 251.099ZM113.865 380.973L81.9622 426.224C187.225 417.196 245.654 417.821 349.124 426.045L308.132 367.077C250.208 413.753 164.659 416.247 113.865 380.973ZM246.644 272.299L215.81 228.117L182.304 276.04C200.305 285.304 227.039 284.413 246.644 272.299Z" fill="white" stroke="#41FFDD" stroke-width="3" stroke-linecap="round"/>
</mask>
<g mask="url(#mask0_516_374)">
<g filter="url(#filter0_f_516_374)">
<ellipse cx="215.496" cy="561.507" rx="212.31" ry="103.912" fill="url(#paint0_linear_516_374)"/>
</g>
</g>
<defs>
<filter id="filter0_f_516_374" x="-209.722" y="244.686" width="850.437" height="633.641" filterUnits="userSpaceOnUse" color-interpolation-filters="sRGB">
<feFlood flood-opacity="0" result="BackgroundImageFix"/>
<feBlend mode="normal" in="SourceGraphic" in2="BackgroundImageFix" result="shape"/>
<feGaussianBlur stdDeviation="106.454" result="effect1_foregroundBlur_516_374"/>
</filter>
<linearGradient id="paint0_linear_516_374" x1="215.496" y1="457.594" x2="215.496" y2="601.917" gradientUnits="userSpaceOnUse">
<stop stop-color="#D9D9D9" stop-opacity="0"/>
<stop offset="1" stop-color="#2D787A"/>
</linearGradient>
</defs>
</svg>
